# xmcd
#
# Track frame offsets:
#	150
#	13819
#	29793
#	48013
#	63042
#	79560
#	95037
#	110220
#	128749
#	145046
#	158926
#	174318
#	188733
#	204862
#	222376
#
# Disc length: 3196 seconds
# Revision: 0
# Processed by: cddbd v1.5.2PL0 Copyright (c) Steve Scherf et al.
# Submitted via: dBpowerAMP V12.0
#
DISCID=cb0c7a0f
DTITLE=Mike Colvin - Rollin'
DYEAR=2013
DGENRE=Country
TTITLE0=Rollin'
TTITLE1=Relaxation In Progress
TTITLE2=Red Mabelline
TTITLE3=Amazing Love
TTITLE4=Bed Of Lies
TTITLE5=Reality
TTITLE6=Better Way of Life
TTITLE7=That's A Friend
TTITLE8=Damned If I Don't
TTITLE9=I Miss The Girl
TTITLE10=Out Of The Picture
TTITLE11=Pay It Forward
TTITLE12=Prayin' Me To Heaven
TTITLE13=Down In Georgia
TTITLE14=I'm Not Goin' Alone
EXTD=
EXTT0=
EXTT1=
EXTT2=
EXTT3=
EXTT4=
EXTT5=
EXTT6=
EXTT7=
EXTT8=
EXTT9=
EXTT10=
EXTT11=
EXTT12=
EXTT13=
EXTT14=
PLAYORDER=
